<svg width="20" height="20" viewBox="0 0 20 20" fill="none" xmlns="http://www.w3.org/2000/svg">
<g clip-path="url(#clip0_357_98)">
<path d="M16.2498 10.4768L9.99984 16.6668L3.74984 10.4768C3.3376 10.0757 3.01288 9.59349 2.79613 9.06068C2.57939 8.52786 2.47531 7.95594 2.49046 7.38093C2.50561 6.80591 2.63965 6.24026 2.88414 5.71959C3.12864 5.19893 3.47829 4.73453 3.91108 4.35563C4.34388 3.97674 4.85043 3.69155 5.39885 3.51805C5.94728 3.34454 6.52568 3.28647 7.09765 3.34748C7.66962 3.4085 8.22276 3.58728 8.72224 3.87257C9.22172 4.15786 9.65672 4.54348 9.99984 5.00515C10.3445 4.54683 10.78 4.16458 11.2791 3.88232C11.7782 3.60005 12.3303 3.42386 12.9006 3.36475C13.471 3.30564 14.0474 3.3649 14.5938 3.53881C15.1402 3.71272 15.6449 3.99754 16.0761 4.37545C16.5074 4.75336 16.856 5.21622 17.1002 5.73506C17.3444 6.2539 17.4788 6.81755 17.4951 7.39074C17.5114 7.96393 17.4092 8.53431 17.195 9.06619C16.9807 9.59807 16.6589 10.08 16.2498 10.4818" stroke="black" stroke-width="1.66667" stroke-linecap="round" stroke-linejoin="round"/>
</g>
<defs>
<clipPath id="clip0_357_98">
<rect width="20" height="20" fill="white"/>
</clipPath>
</defs>
</svg>
