<svg width="50" height="50" viewBox="0 0 50 50" fill="none" xmlns="http://www.w3.org/2000/svg">
<circle cx="25" cy="25" r="25" fill="#F1F1F1"/>
<path d="M24.6734 20.2221C23.7974 20.2221 22.4414 19.2261 21.0134 19.2621C19.1294 19.2861 17.4014 20.3541 16.4294 22.0461C14.4734 25.4421 15.9254 30.4581 17.8334 33.2181C18.7694 34.5621 19.8734 36.0741 21.3374 36.0261C22.7414 35.9661 23.2694 35.1141 24.9734 35.1141C26.6654 35.1141 27.1454 36.0261 28.6334 35.9901C30.1454 35.9661 31.1054 34.6221 32.0294 33.2661C33.0974 31.7061 33.5414 30.1941 33.5654 30.1101C33.5294 30.0981 30.6254 28.9821 30.5894 25.6221C30.5654 22.8141 32.8814 21.4701 32.9894 21.4101C31.6694 19.4781 29.6414 19.2621 28.9334 19.2141C27.0854 19.0701 25.5374 20.2221 24.6734 20.2221ZM27.7934 17.3901C28.5734 16.4541 29.0894 15.1461 28.9454 13.8501C27.8294 13.8981 26.4854 14.5941 25.6814 15.5301C24.9614 16.3581 24.3374 17.6901 24.5054 18.9621C25.7414 19.0581 27.0134 18.3261 27.7934 17.3901Z" fill="black"/>
</svg>
