<svg width="34" height="34" viewBox="0 0 34 34" fill="none" xmlns="http://www.w3.org/2000/svg">
<g clip-path="url(#clip0_6_5159)">
<path d="M4.24963 17C4.24963 18.6744 4.57942 20.3323 5.22017 21.8792C5.86092 23.4261 6.80008 24.8317 7.98402 26.0156C9.16797 27.1996 10.5735 28.1387 12.1204 28.7795C13.6673 29.4202 15.3253 29.75 16.9996 29.75C18.674 29.75 20.3319 29.4202 21.8788 28.7795C23.4257 28.1387 24.8313 27.1996 26.0152 26.0156C27.1992 24.8317 28.1384 23.4261 28.7791 21.8792C29.4198 20.3323 29.7496 18.6744 29.7496 17C29.7496 15.3256 29.4198 13.6677 28.7791 12.1208C28.1384 10.5739 27.1992 9.16834 26.0152 7.98439C24.8313 6.80044 23.4257 5.86128 21.8788 5.22054C20.3319 4.57979 18.674 4.25 16.9996 4.25C15.3253 4.25 13.6673 4.57979 12.1204 5.22054C10.5735 5.86128 9.16797 6.80044 7.98402 7.98439C6.80008 9.16834 5.86092 10.5739 5.22017 12.1208C4.57942 13.6677 4.24963 15.3256 4.24963 17Z" stroke="#888888" stroke-width="2.83333" stroke-linecap="round" stroke-linejoin="round"/>
<path d="M20.5413 22.7375C20.0797 22.2663 19.5286 21.892 18.9205 21.6365C18.3124 21.3809 17.6593 21.2493 16.9997 21.2493C16.34 21.2493 15.687 21.3809 15.0789 21.6365C14.4707 21.892 13.9197 22.2663 13.458 22.7375" stroke="#888888" stroke-width="2.83333" stroke-linecap="round" stroke-linejoin="round"/>
<path d="M14.1664 13.1042C13.458 14.5208 10.6247 14.5208 9.91638 13.1042" stroke="#888888" stroke-width="2.83333" stroke-linecap="round" stroke-linejoin="round"/>
<path d="M24.083 13.1042C23.3747 14.5208 20.5413 14.5208 19.833 13.1042" stroke="#888888" stroke-width="2.83333" stroke-linecap="round" stroke-linejoin="round"/>
</g>
<defs>
<clipPath id="clip0_6_5159">
<rect width="34" height="34" fill="white"/>
</clipPath>
</defs>
</svg>
