<svg width="34" height="34" viewBox="0 0 34 34" fill="none" xmlns="http://www.w3.org/2000/svg">
<g clip-path="url(#clip0_6_5166)">
<path d="M29.7504 17C29.7503 14.4185 28.9666 11.8979 27.5029 9.77151C26.0393 7.64509 23.9647 6.01305 21.5535 5.0912C19.1422 4.16936 16.508 4.00114 13.9991 4.6088C11.4902 5.21647 9.22481 6.57138 7.50261 8.49436C5.7804 10.4173 4.68246 12.8178 4.35401 15.3782C4.02555 17.9387 4.48204 20.5386 5.66312 22.834C6.84419 25.1294 8.69421 27.0122 10.9685 28.2335C13.2428 29.4547 15.8342 29.9568 18.4 29.6735" stroke="#888888" stroke-width="2.83333" stroke-linecap="round" stroke-linejoin="round"/>
<path d="M12.7504 14.1667H12.7637" stroke="#888888" stroke-width="2.83333" stroke-linecap="round" stroke-linejoin="round"/>
<path d="M21.2504 14.1667H21.2637" stroke="#888888" stroke-width="2.83333" stroke-linecap="round" stroke-linejoin="round"/>
<path d="M13.4586 21.25C13.9772 21.7484 14.5957 22.1311 15.2731 22.3728C15.9505 22.6146 16.6715 22.7099 17.3885 22.6525" stroke="#888888" stroke-width="2.83333" stroke-linecap="round" stroke-linejoin="round"/>
<path d="M26.9081 30.4584L30.4753 26.8034C30.918 26.3448 31.1659 25.7327 31.1669 25.0953C31.168 24.4579 30.9221 23.8449 30.481 23.3849C30.2664 23.1607 30.0087 22.9822 29.7234 22.8599C29.4381 22.7377 29.1311 22.6744 28.8207 22.6737C28.5104 22.6731 28.2031 22.7351 27.9173 22.8561C27.6314 22.9771 27.373 23.1546 27.1575 23.3779L26.9195 23.6215L26.6815 23.3779C26.4668 23.1537 26.209 22.9753 25.9237 22.8532C25.6383 22.7311 25.3313 22.6679 25.0209 22.6674C24.7106 22.6668 24.4033 22.729 24.1175 22.8501C23.8318 22.9712 23.5734 23.1488 23.358 23.3722C22.9157 23.8306 22.6681 24.4425 22.667 25.0795C22.6659 25.7166 22.9115 26.3293 23.3523 26.7892L26.9081 30.4584Z" stroke="#888888" stroke-width="2.83333" stroke-linecap="round" stroke-linejoin="round"/>
</g>
<defs>
<clipPath id="clip0_6_5166">
<rect width="34" height="34" fill="white"/>
</clipPath>
</defs>
</svg>
