<svg width="109" height="21" viewBox="0 0 109 21" fill="none" xmlns="http://www.w3.org/2000/svg">
<path d="M0 4.40699C0 3.06476 0.581633 1.99843 1.7449 1.20801C2.92308 0.402669 4.29513 0 5.86107 0C7.99372 0 9.87284 0.63383 11.4984 1.90149V4.00432C10.7229 3.34812 9.83556 2.82614 8.83634 2.43838C7.83713 2.03571 6.84537 1.83438 5.86107 1.83438C4.81711 1.83438 3.89992 2.06554 3.1095 2.52787C2.31907 2.97528 1.92386 3.60165 1.92386 4.40699C1.92386 4.67543 1.97606 4.92151 2.08046 5.14521C2.18485 5.354 2.35636 5.54788 2.59498 5.72685C2.84851 5.90581 3.08713 6.05495 3.31083 6.17425C3.53454 6.29356 3.87009 6.42033 4.3175 6.55455C4.77983 6.68878 5.15267 6.79317 5.43603 6.86774C5.71939 6.92739 6.15188 7.02433 6.73352 7.15856C8.64246 7.60597 9.98469 8.20997 10.7602 8.97056C11.5506 9.71625 11.9533 10.6185 11.9682 11.6774C11.9682 12.6319 11.6774 13.4521 11.0958 14.1381C10.529 14.8242 9.8281 15.3163 8.99294 15.6146C8.15777 15.898 7.25549 16.0396 6.28611 16.0396C6.24137 16.0396 6.19663 16.0396 6.15188 16.0396C3.87009 16.0247 1.85675 15.2119 0.111852 13.6013V11.4984C2.03571 13.303 4.08634 14.2053 6.26374 14.2053C7.30769 14.2053 8.19506 13.989 8.92583 13.5565C9.65659 13.124 10.022 12.5126 10.022 11.7221C10.022 11.0063 9.67896 10.4172 8.99294 9.95487C8.30691 9.47763 7.13619 9.05259 5.48077 8.67975C3.58673 8.23234 2.19976 7.68799 1.31986 7.0467C0.439953 6.40542 0 5.52551 0 4.40699Z" fill="black"/>
<path d="M13.3167 5.65973V4.00432H15.7775V0.91719L17.6566 0.335558V4.00432H21.5043V5.65973H17.6566V12.1472C17.6566 13.1016 17.8878 13.6982 18.3501 13.9368C18.8124 14.1605 19.2524 14.2724 19.6699 14.2724C20.1919 14.2724 20.8108 14.168 21.5267 13.9592V15.7936C20.7661 15.9874 20.0726 16.0844 19.4462 16.0844C18.6111 16.0844 17.7908 15.8383 16.9855 15.3462C16.1802 14.854 15.7775 13.7951 15.7775 12.1695V5.65973H13.3167Z" fill="black"/>
<path d="M22.6606 4.00432H24.6963L28.6559 13.5341L32.4365 4.00432H34.4722L27.7611 20.5585H25.7701L27.694 15.8159L22.6606 4.00432Z" fill="black"/>
<path d="M36.3594 15.8607V0.201334H38.2609V15.8607H36.3594Z" fill="black"/>
<path d="M42.2893 5.57025C43.4675 4.39207 44.8992 3.80298 46.5844 3.80298C48.0907 3.80298 49.4031 4.31005 50.5216 5.32418C51.6551 6.32339 52.3262 7.56868 52.535 9.06005C52.5946 9.37323 52.6245 9.66405 52.6245 9.9325C52.6245 10.1711 52.6021 10.3948 52.5574 10.6036H42.4012C42.5056 11.7072 42.953 12.602 43.7434 13.2881C44.5338 13.9741 45.4808 14.3171 46.5844 14.3171C47.345 14.3171 48.0609 14.1456 48.732 13.8026C49.4031 13.4596 49.9475 12.9973 50.3651 12.4156L52.0876 12.8183C51.6103 13.7877 50.8572 14.5706 49.8282 15.1672C48.814 15.7488 47.7328 16.0396 46.5844 16.0396C44.8843 16.0396 43.4451 15.4431 42.2669 14.25C41.0888 13.042 40.4997 11.5954 40.4997 9.91013C40.4997 8.20997 41.0962 6.76334 42.2893 5.57025ZM42.4012 9.10479H50.6782C50.544 8.09066 50.0891 7.24058 49.3136 6.55455C48.553 5.85361 47.6359 5.50314 46.5621 5.50314C45.4734 5.50314 44.5338 5.85361 43.7434 6.55455C42.9679 7.24058 42.5205 8.09066 42.4012 9.10479Z" fill="black"/>
<path d="M54.4844 4.40699C54.4844 3.06476 55.066 1.99843 56.2293 1.20801C57.4074 0.402669 58.7795 0 60.3454 0C62.4781 0 64.3572 0.63383 65.9828 1.90149V4.00432C65.2073 3.34812 64.3199 2.82614 63.3207 2.43838C62.3215 2.03571 61.3297 1.83438 60.3454 1.83438C59.3015 1.83438 58.3843 2.06554 57.5939 2.52787C56.8034 2.97528 56.4082 3.60165 56.4082 4.40699C56.4082 4.67543 56.4604 4.92151 56.5648 5.14521C56.6692 5.354 56.8407 5.54788 57.0793 5.72685C57.3329 5.90581 57.5715 6.05495 57.7952 6.17425C58.0189 6.29356 58.3545 6.42033 58.8019 6.55455C59.2642 6.68878 59.637 6.79317 59.9204 6.86774C60.2038 6.92739 60.6362 7.02433 61.2179 7.15856C63.1268 7.60597 64.4691 8.20997 65.2446 8.97056C66.035 9.71625 66.4377 10.6185 66.4526 11.6774C66.4526 12.6319 66.1618 13.4521 65.5801 14.1381C65.0134 14.8242 64.3125 15.3163 63.4773 15.6146C62.6421 15.898 61.7399 16.0396 60.7705 16.0396C60.7257 16.0396 60.681 16.0396 60.6362 16.0396C58.3545 16.0247 56.3411 15.2119 54.5962 13.6013V11.4984C56.5201 13.303 58.5707 14.2053 60.7481 14.2053C61.7921 14.2053 62.6794 13.989 63.4102 13.5565C64.141 13.124 64.5063 12.5126 64.5063 11.7221C64.5063 11.0063 64.1633 10.4172 63.4773 9.95487C62.7913 9.47763 61.6206 9.05259 59.9651 8.67975C58.0711 8.23234 56.6841 7.68799 55.8042 7.0467C54.9243 6.40542 54.4844 5.52551 54.4844 4.40699Z" fill="black"/>
<path d="M69.8144 5.57025C70.9777 4.39207 72.3796 3.80298 74.0201 3.80298C74.9597 3.80298 75.8097 4.01923 76.5703 4.45173C77.3309 4.86931 77.9424 5.44349 78.4047 6.17425V4.00432H80.3062V15.8607H78.4047V13.6907C77.9424 14.4066 77.3309 14.9808 76.5703 15.4133C75.8097 15.8308 74.9597 16.0396 74.0201 16.0396C72.3796 16.0396 70.9777 15.4431 69.8144 14.25C68.6512 13.042 68.0695 11.5954 68.0695 9.91013C68.0695 8.20997 68.6512 6.76334 69.8144 5.57025ZM69.8815 9.91013C69.8815 11.133 70.2991 12.1695 71.1343 13.0196C71.9695 13.8697 72.9836 14.2947 74.1767 14.2947C75.3698 14.2947 76.3914 13.8622 77.2414 12.9973C78.0915 12.1323 78.5166 11.1032 78.5166 9.91013C78.5166 8.71703 78.0915 7.68799 77.2414 6.823C76.3914 5.95801 75.3698 5.52551 74.1767 5.52551C72.9687 5.52551 71.9471 5.95801 71.1119 6.823C70.2917 7.67308 69.8815 8.70212 69.8815 9.91013Z" fill="black"/>
<path d="M82.4662 9.73116C82.4662 8.031 83.0329 6.62166 84.1663 5.50314C85.2998 4.3697 86.6942 3.80298 88.3496 3.80298C88.3794 3.80298 88.4018 3.80298 88.4167 3.80298C89.3563 3.80298 90.2064 4.01177 90.967 4.42936C91.7276 4.83202 92.339 5.38383 92.8013 6.08477V4.00432H94.7028V14.6527C94.7028 15.7264 94.5313 16.6809 94.1883 17.5161C93.8602 18.3662 93.4128 19.0298 92.8461 19.5071C92.2943 19.9992 91.6754 20.3646 90.9893 20.6032C90.3182 20.8568 89.6098 20.9835 88.8641 20.9835C87.5219 20.9835 86.299 20.6107 85.1954 19.865C84.0918 19.1342 83.3834 18.0604 83.0702 16.6436H84.9717C85.2252 17.5086 85.7248 18.1499 86.4705 18.5675C87.2162 19 88.0066 19.2162 88.8418 19.2162C89.9454 19.2162 90.8775 18.8583 91.6381 18.1425C92.3987 17.4415 92.7864 16.323 92.8013 14.7869V13.4223C92.3539 14.1083 91.7425 14.6527 90.967 15.0553C90.2064 15.458 89.3563 15.6593 88.4167 15.6593C86.7166 15.6593 85.2998 15.0926 84.1663 13.9592C83.0329 12.8257 82.4662 11.4164 82.4662 9.73116ZM85.5533 12.7512C86.3885 13.5565 87.3951 13.9592 88.5733 13.9592C89.7664 13.9592 90.788 13.5565 91.6381 12.7512C92.4882 11.9309 92.9132 10.9243 92.9132 9.73116C92.9132 8.55298 92.4882 7.55377 91.6381 6.73352C90.8029 5.91327 89.7813 5.50314 88.5733 5.50314C87.3653 5.50314 86.3437 5.91327 85.5086 6.73352C84.6883 7.53885 84.2782 8.53807 84.2782 9.73116C84.2782 10.9392 84.7032 11.9458 85.5533 12.7512Z" fill="black"/>
<path d="M98.6087 5.57025C99.7869 4.39207 101.219 3.80298 102.904 3.80298C104.41 3.80298 105.723 4.31005 106.841 5.32418C107.975 6.32339 108.646 7.56868 108.854 9.06005C108.914 9.37323 108.944 9.66405 108.944 9.9325C108.944 10.1711 108.922 10.3948 108.877 10.6036H98.7206C98.825 11.7072 99.2724 12.602 100.063 13.2881C100.853 13.9741 101.8 14.3171 102.904 14.3171C103.664 14.3171 104.38 14.1456 105.051 13.8026C105.723 13.4596 106.267 12.9973 106.685 12.4156L108.407 12.8183C107.93 13.7877 107.177 14.5706 106.148 15.1672C105.133 15.7488 104.052 16.0396 102.904 16.0396C101.204 16.0396 99.7646 15.4431 98.5864 14.25C97.4082 13.042 96.8191 11.5954 96.8191 9.91013C96.8191 8.20997 97.4157 6.76334 98.6087 5.57025ZM98.7206 9.10479H106.998C106.863 8.09066 106.409 7.24058 105.633 6.55455C104.872 5.85361 103.955 5.50314 102.882 5.50314C101.793 5.50314 100.853 5.85361 100.063 6.55455C99.2873 7.24058 98.8399 8.09066 98.7206 9.10479Z" fill="black"/>
</svg>
