<svg width="34" height="34" viewBox="0 0 34 34" fill="none" xmlns="http://www.w3.org/2000/svg">
<g clip-path="url(#clip0_6_5152)">
<path d="M4.25 17C4.25 18.6744 4.57979 20.3323 5.22054 21.8792C5.86128 23.4261 6.80044 24.8317 7.98439 26.0156C9.16834 27.1996 10.5739 28.1387 12.1208 28.7795C13.6677 29.4202 15.3256 29.75 17 29.75C18.6744 29.75 20.3323 29.4202 21.8792 28.7795C23.4261 28.1387 24.8317 27.1996 26.0156 26.0156C27.1996 24.8317 28.1387 23.4261 28.7795 21.8792C29.4202 20.3323 29.75 18.6744 29.75 17C29.75 15.3256 29.4202 13.6677 28.7795 12.1208C28.1387 10.5739 27.1996 9.16834 26.0156 7.98439C24.8317 6.80044 23.4261 5.86128 21.8792 5.22054C20.3323 4.57979 18.6744 4.25 17 4.25C15.3256 4.25 13.6677 4.57979 12.1208 5.22054C10.5739 5.86128 9.16834 6.80044 7.98439 7.98439C6.80044 9.16834 5.86128 10.5739 5.22054 12.1208C4.57979 13.6677 4.25 15.3256 4.25 17Z" stroke="#888888" stroke-width="2.83333" stroke-linecap="round" stroke-linejoin="round"/>
<path d="M12.75 14.1667H12.7633" stroke="#888888" stroke-width="2.83333" stroke-linecap="round" stroke-linejoin="round"/>
<path d="M21.25 14.1667H21.2633" stroke="#888888" stroke-width="2.83333" stroke-linecap="round" stroke-linejoin="round"/>
<path d="M13.4584 21.25C13.92 21.7212 14.4711 22.0955 15.0792 22.3511C15.6874 22.6066 16.3404 22.7382 17 22.7382C17.6597 22.7382 18.3127 22.6066 18.9209 22.3511C19.529 22.0955 20.08 21.7212 20.5417 21.25" stroke="#888888" stroke-width="2.83333" stroke-linecap="round" stroke-linejoin="round"/>
</g>
<defs>
<clipPath id="clip0_6_5152">
<rect width="34" height="34" fill="white"/>
</clipPath>
</defs>
</svg>
