<svg width="72" height="72" viewBox="0 0 72 72" fill="none" xmlns="http://www.w3.org/2000/svg">
<g clip-path="url(#clip0_6_5277)">
<path d="M42.0002 18C42.0002 16.4087 41.3681 14.8826 40.2428 13.7574C39.1176 12.6322 37.5915 12 36.0002 12C34.4089 12 32.8828 12.6322 31.7576 13.7574C30.6323 14.8826 30.0002 16.4087 30.0002 18C30.0002 23.001 32.0102 27 36.0002 30H35.9762M35.9762 30L59.8892 43.284C60.825 43.8037 61.6048 44.5643 62.1476 45.4869C62.6904 46.4096 62.9765 47.4606 62.9762 48.531V51C62.9762 52.5913 62.3441 54.1175 61.2188 55.2427C60.0936 56.3679 58.5675 57 56.9762 57H14.9762C13.3849 57 11.8588 56.3679 10.7336 55.2427C9.60834 54.1175 8.9762 52.5913 8.9762 51V48.531C8.97591 47.4606 9.26201 46.4096 9.80482 45.4869C10.3476 44.5643 11.1274 43.8037 12.0632 43.284L35.9762 30Z" stroke="black" stroke-width="6" stroke-linecap="round" stroke-linejoin="round"/>
</g>
<defs>
<clipPath id="clip0_6_5277">
<rect width="72" height="72" fill="white"/>
</clipPath>
</defs>
</svg>
