<svg width="50" height="50" viewBox="0 0 50 50" fill="none" xmlns="http://www.w3.org/2000/svg">
<g clip-path="url(#clip0_6_5145)">
<path d="M35.4166 6.95836C38.5588 8.77264 41.1728 11.3761 42.9996 14.5111C44.8264 17.646 45.8028 21.2037 45.8321 24.832C45.8614 28.4603 44.9426 32.0333 43.1667 35.1973C41.3907 38.3614 38.8192 41.0067 35.7067 42.8715C32.5942 44.7363 29.0486 45.7559 25.421 45.8293C21.7934 45.9027 18.2094 45.0275 15.024 43.2901C11.8386 41.5528 9.16219 39.0136 7.25968 35.924C5.35717 32.8344 4.29456 29.3015 4.17704 25.675L4.16663 25L4.17704 24.325C4.29372 20.7271 5.34068 17.2208 7.21587 14.1479C9.09107 11.0751 11.7305 8.54055 14.8768 6.79145C18.0231 5.04234 21.569 4.13835 25.1687 4.1676C28.7684 4.19686 32.2991 5.15835 35.4166 6.95836ZM32.7229 19.3604C32.3641 19.0017 31.8868 18.7863 31.3805 18.7544C30.8742 18.7226 30.3737 18.8766 29.9729 19.1875L29.777 19.3604L22.9166 26.2188L20.2229 23.5271L20.027 23.3542C19.6262 23.0435 19.1257 22.8897 18.6196 22.9216C18.1134 22.9535 17.6362 23.169 17.2776 23.5277C16.919 23.8863 16.7035 24.3634 16.6715 24.8696C16.6396 25.3758 16.7934 25.8762 17.1041 26.2771L17.277 26.4729L21.4437 30.6396L21.6395 30.8125C22.0049 31.096 22.4542 31.2499 22.9166 31.2499C23.3791 31.2499 23.8283 31.096 24.1937 30.8125L24.3895 30.6396L32.7229 22.3063L32.8958 22.1104C33.2067 21.7096 33.3607 21.2091 33.3289 20.7028C33.2971 20.1965 33.0816 19.7192 32.7229 19.3604Z" fill="#F93C00"/>
</g>
<defs>
<clipPath id="clip0_6_5145">
<rect width="50" height="50" fill="white"/>
</clipPath>
</defs>
</svg>
