<svg width="50" height="50" viewBox="0 0 50 50" fill="none" xmlns="http://www.w3.org/2000/svg">
<circle cx="25" cy="25" r="25" fill="#F1F1F1"/>
<path d="M35.2125 18.656C34.4491 18.9937 33.6395 19.2155 32.8106 19.3141C33.6839 18.7913 34.3374 17.9689 34.6493 17C33.8287 17.4876 32.9305 17.8308 31.9938 18.0146C31.2031 17.1711 30.098 16.693 28.9418 16.6943C26.6326 16.6943 24.7597 18.5666 24.7597 20.8768C24.7597 21.2046 24.7973 21.5224 24.8676 21.8291C21.3905 21.654 18.3101 19.99 16.2468 17.4594C15.8753 18.0977 15.6801 18.8232 15.681 19.5617C15.681 21.0126 16.4196 22.2932 17.5415 23.043C16.8774 23.022 16.2279 22.8426 15.6472 22.5197C15.6465 22.5373 15.6465 22.5549 15.6465 22.5715C15.6465 24.5984 17.0882 26.2892 19.002 26.6731C18.6428 26.7703 18.2723 26.8194 17.9002 26.8191C17.63 26.8191 17.3677 26.7942 17.1128 26.7453C17.6453 28.4065 19.1889 29.6159 21.0196 29.6491C19.5381 30.8118 17.7087 31.4426 15.8254 31.4399C15.4921 31.4402 15.1591 31.4205 14.8281 31.3811C16.74 32.6102 18.9655 33.2625 21.2384 33.2601C28.9316 33.2601 33.138 26.8875 33.138 21.3611C33.138 21.1803 33.1336 20.9989 33.1256 20.82C33.9443 20.2284 34.651 19.4957 35.2125 18.656Z" fill="black"/>
</svg>
